<?xml version="1.0" encoding="utf-8" standalone="no"?>
<!DOCTYPE svg PUBLIC "-//W3C//DTD SVG 1.1//EN"
  "http://www.w3.org/Graphics/SVG/1.1/DTD/svg11.dtd">
<svg xmlns:xlink="http://www.w3.org/1999/xlink" width="1068.863028pt" height="346.1575pt" viewBox="0 0 1068.863028 346.1575" xmlns="http://www.w3.org/2000/svg" version="1.1">
 <metadata>
  <rdf:RDF xmlns:dc="http://purl.org/dc/elements/1.1/" xmlns:cc="http://creativecommons.org/ns#" xmlns:rdf="http://www.w3.org/1999/02/22-rdf-syntax-ns#">
   <cc:Work>
    <dc:type rdf:resource="http://purl.org/dc/dcmitype/StillImage"/>
    <dc:date>2026-06-25T12:17:21.069786</dc:date>
    <dc:format>image/svg+xml</dc:format>
    <dc:creator>
     <cc:Agent>
      <dc:title>Matplotlib v3.10.9, https://matplotlib.org/</dc:title>
     </cc:Agent>
    </dc:creator>
   </cc:Work>
  </rdf:RDF>
 </metadata>
 <defs>
  <style type="text/css">*{stroke-linejoin: round; stroke-linecap: butt}</style>
 </defs>
 <g id="figure_1">
  <g id="patch_1">
   <path d="M 0 346.1575 
L 1068.863028 346.1575 
L 1068.863028 0 
L 0 0 
z
" style="fill: #ffffff"/>
  </g>
  <g id="axes_1">
   <g id="patch_2">
    <path d="M 43.78125 279.0775 
L 368.869368 279.0775 
L 368.869368 25.3575 
L 43.78125 25.3575 
z
" style="fill: #ffffff"/>
   </g>
   <g id="matplotlib.axis_1">
    <g id="xtick_1">
     <g id="line2d_1">
      <path d="M 85.144504 279.0775 
L 85.144504 25.3575 
" clip-path="url(#pef0235a46b)" style="fill: none; stroke: #b0b0b0; stroke-opacity: 0.3; stroke-width: 0.8; stroke-linecap: square"/>
     </g>
     <g id="line2d_2">
      <defs>
       <path id="made37570ab" d="M 0 0 
L 0 3.5 
" style="stroke: #000000; stroke-width: 0.8"/>
      </defs>
      <g>
       <use xlink:href="#made37570ab" x="85.144504" y="279.0775" style="stroke: #000000; stroke-width: 0.8"/>
      </g>
     </g>
     <g id="text_1">
      <!-- 20 -->
      <g transform="translate(78.782004 293.675938) scale(0.1 -0.1)">
       <defs>
        <path id="DejaVuSans-32" d="M 1228 531 
L 3431 531 
L 3431 0 
L 469 0 
L 469 531 
Q 828 903 1448 1529 
Q 2069 2156 2228 2338 
Q 2531 2678 2651 2914 
Q 2772 3150 2772 3378 
Q 2772 3750 2511 3984 
Q 2250 4219 1831 4219 
Q 1534 4219 1204 4116 
Q 875 4013 500 3803 
L 500 4441 
Q 881 4594 1212 4672 
Q 1544 4750 1819 4750 
Q 2544 4750 2975 4387 
Q 3406 4025 3406 3419 
Q 3406 3131 3298 2873 
Q 3191 2616 2906 2266 
Q 2828 2175 2409 1742 
Q 1991 1309 1228 531 
z
" transform="scale(0.015625)"/>
        <path id="DejaVuSans-30" d="M 2034 4250 
Q 1547 4250 1301 3770 
Q 1056 3291 1056 2328 
Q 1056 1369 1301 889 
Q 1547 409 2034 409 
Q 2525 409 2770 889 
Q 3016 1369 3016 2328 
Q 3016 3291 2770 3770 
Q 2525 4250 2034 4250 
z
M 2034 4750 
Q 2819 4750 3233 4129 
Q 3647 3509 3647 2328 
Q 3647 1150 3233 529 
Q 2819 -91 2034 -91 
Q 1250 -91 836 529 
Q 422 1150 422 2328 
Q 422 3509 836 4129 
Q 1250 4750 2034 4750 
z
" transform="scale(0.015625)"/>
       </defs>
       <use xlink:href="#DejaVuSans-32"/>
       <use xlink:href="#DejaVuSans-30" transform="translate(63.623047 0)"/>
      </g>
     </g>
    </g>
    <g id="xtick_2">
     <g id="line2d_3">
      <path d="M 155.254903 279.0775 
L 155.254903 25.3575 
" clip-path="url(#pef0235a46b)" style="fill: none; stroke: #b0b0b0; stroke-opacity: 0.3; stroke-width: 0.8; stroke-linecap: square"/>
     </g>
     <g id="line2d_4">
      <g>
       <use xlink:href="#made37570ab" x="155.254903" y="279.0775" style="stroke: #000000; stroke-width: 0.8"/>
      </g>
     </g>
     <g id="text_2">
      <!-- 40 -->
      <g transform="translate(148.892403 293.675938) scale(0.1 -0.1)">
       <defs>
        <path id="DejaVuSans-34" d="M 2419 4116 
L 825 1625 
L 2419 1625 
L 2419 4116 
z
M 2253 4666 
L 3047 4666 
L 3047 1625 
L 3713 1625 
L 3713 1100 
L 3047 1100 
L 3047 0 
L 2419 0 
L 2419 1100 
L 313 1100 
L 313 1709 
L 2253 4666 
z
" transform="scale(0.015625)"/>
       </defs>
       <use xlink:href="#DejaVuSans-34"/>
       <use xlink:href="#DejaVuSans-30" transform="translate(63.623047 0)"/>
      </g>
     </g>
    </g>
    <g id="xtick_3">
     <g id="line2d_5">
      <path d="M 225.365303 279.0775 
L 225.365303 25.3575 
" clip-path="url(#pef0235a46b)" style="fill: none; stroke: #b0b0b0; stroke-opacity: 0.3; stroke-width: 0.8; stroke-linecap: square"/>
     </g>
     <g id="line2d_6">
      <g>
       <use xlink:href="#made37570ab" x="225.365303" y="279.0775" style="stroke: #000000; stroke-width: 0.8"/>
      </g>
     </g>
     <g id="text_3">
      <!-- 60 -->
      <g transform="translate(219.002803 293.675938) scale(0.1 -0.1)">
       <defs>
        <path id="DejaVuSans-36" d="M 2113 2584 
Q 1688 2584 1439 2293 
Q 1191 2003 1191 1497 
Q 1191 994 1439 701 
Q 1688 409 2113 409 
Q 2538 409 2786 701 
Q 3034 994 3034 1497 
Q 3034 2003 2786 2293 
Q 2538 2584 2113 2584 
z
M 3366 4563 
L 3366 3988 
Q 3128 4100 2886 4159 
Q 2644 4219 2406 4219 
Q 1781 4219 1451 3797 
Q 1122 3375 1075 2522 
Q 1259 2794 1537 2939 
Q 1816 3084 2150 3084 
Q 2853 3084 3261 2657 
Q 3669 2231 3669 1497 
Q 3669 778 3244 343 
Q 2819 -91 2113 -91 
Q 1303 -91 875 529 
Q 447 1150 447 2328 
Q 447 3434 972 4092 
Q 1497 4750 2381 4750 
Q 2619 4750 2861 4703 
Q 3103 4656 3366 4563 
z
" transform="scale(0.015625)"/>
       </defs>
       <use xlink:href="#DejaVuSans-36"/>
       <use xlink:href="#DejaVuSans-30" transform="translate(63.623047 0)"/>
      </g>
     </g>
    </g>
    <g id="xtick_4">
     <g id="line2d_7">
      <path d="M 295.475703 279.0775 
L 295.475703 25.3575 
" clip-path="url(#pef0235a46b)" style="fill: none; stroke: #b0b0b0; stroke-opacity: 0.3; stroke-width: 0.8; stroke-linecap: square"/>
     </g>
     <g id="line2d_8">
      <g>
       <use xlink:href="#made37570ab" x="295.475703" y="279.0775" style="stroke: #000000; stroke-width: 0.8"/>
      </g>
     </g>
     <g id="text_4">
      <!-- 80 -->
      <g transform="translate(289.113203 293.675938) scale(0.1 -0.1)">
       <defs>
        <path id="DejaVuSans-38" d="M 2034 2216 
Q 1584 2216 1326 1975 
Q 1069 1734 1069 1313 
Q 1069 891 1326 650 
Q 1584 409 2034 409 
Q 2484 409 2743 651 
Q 3003 894 3003 1313 
Q 3003 1734 2745 1975 
Q 2488 2216 2034 2216 
z
M 1403 2484 
Q 997 2584 770 2862 
Q 544 3141 544 3541 
Q 544 4100 942 4425 
Q 1341 4750 2034 4750 
Q 2731 4750 3128 4425 
Q 3525 4100 3525 3541 
Q 3525 3141 3298 2862 
Q 3072 2584 2669 2484 
Q 3125 2378 3379 2068 
Q 3634 1759 3634 1313 
Q 3634 634 3220 271 
Q 2806 -91 2034 -91 
Q 1263 -91 848 271 
Q 434 634 434 1313 
Q 434 1759 690 2068 
Q 947 2378 1403 2484 
z
M 1172 3481 
Q 1172 3119 1398 2916 
Q 1625 2713 2034 2713 
Q 2441 2713 2670 2916 
Q 2900 3119 2900 3481 
Q 2900 3844 2670 4047 
Q 2441 4250 2034 4250 
Q 1625 4250 1398 4047 
Q 1172 3844 1172 3481 
z
" transform="scale(0.015625)"/>
       </defs>
       <use xlink:href="#DejaVuSans-38"/>
       <use xlink:href="#DejaVuSans-30" transform="translate(63.623047 0)"/>
      </g>
     </g>
    </g>
    <g id="xtick_5">
     <g id="line2d_9">
      <path d="M 365.586103 279.0775 
L 365.586103 25.3575 
" clip-path="url(#pef0235a46b)" style="fill: none; stroke: #b0b0b0; stroke-opacity: 0.3; stroke-width: 0.8; stroke-linecap: square"/>
     </g>
     <g id="line2d_10">
      <g>
       <use xlink:href="#made37570ab" x="365.586103" y="279.0775" style="stroke: #000000; stroke-width: 0.8"/>
      </g>
     </g>
     <g id="text_5">
      <!-- 100 -->
      <g transform="translate(356.042353 293.675938) scale(0.1 -0.1)">
       <defs>
        <path id="DejaVuSans-31" d="M 794 531 
L 1825 531 
L 1825 4091 
L 703 3866 
L 703 4441 
L 1819 4666 
L 2450 4666 
L 2450 531 
L 3481 531 
L 3481 0 
L 794 0 
L 794 531 
z
" transform="scale(0.015625)"/>
       </defs>
       <use xlink:href="#DejaVuSans-31"/>
       <use xlink:href="#DejaVuSans-30" transform="translate(63.623047 0)"/>
       <use xlink:href="#DejaVuSans-30" transform="translate(127.246094 0)"/>
      </g>
     </g>
    </g>
    <g id="text_6">
     <!-- Time -->
     <g transform="translate(194.091715 307.354063) scale(0.1 -0.1)">
      <defs>
       <path id="DejaVuSans-54" d="M -19 4666 
L 3928 4666 
L 3928 4134 
L 2272 4134 
L 2272 0 
L 1638 0 
L 1638 4134 
L -19 4134 
L -19 4666 
z
" transform="scale(0.015625)"/>
       <path id="DejaVuSans-69" d="M 603 3500 
L 1178 3500 
L 1178 0 
L 603 0 
L 603 3500 
z
M 603 4863 
L 1178 4863 
L 1178 4134 
L 603 4134 
L 603 4863 
z
" transform="scale(0.015625)"/>
       <path id="DejaVuSans-6d" d="M 3328 2828 
Q 3544 3216 3844 3400 
Q 4144 3584 4550 3584 
Q 5097 3584 5394 3201 
Q 5691 2819 5691 2113 
L 5691 0 
L 5113 0 
L 5113 2094 
Q 5113 2597 4934 2840 
Q 4756 3084 4391 3084 
Q 3944 3084 3684 2787 
Q 3425 2491 3425 1978 
L 3425 0 
L 2847 0 
L 2847 2094 
Q 2847 2600 2669 2842 
Q 2491 3084 2119 3084 
Q 1678 3084 1418 2786 
Q 1159 2488 1159 1978 
L 1159 0 
L 581 0 
L 581 3500 
L 1159 3500 
L 1159 2956 
Q 1356 3278 1631 3431 
Q 1906 3584 2284 3584 
Q 2666 3584 2933 3390 
Q 3200 3197 3328 2828 
z
" transform="scale(0.015625)"/>
       <path id="DejaVuSans-65" d="M 3597 1894 
L 3597 1613 
L 953 1613 
Q 991 1019 1311 708 
Q 1631 397 2203 397 
Q 2534 397 2845 478 
Q 3156 559 3463 722 
L 3463 178 
Q 3153 47 2828 -22 
Q 2503 -91 2169 -91 
Q 1331 -91 842 396 
Q 353 884 353 1716 
Q 353 2575 817 3079 
Q 1281 3584 2069 3584 
Q 2775 3584 3186 3129 
Q 3597 2675 3597 1894 
z
M 3022 2063 
Q 3016 2534 2758 2815 
Q 2500 3097 2075 3097 
Q 1594 3097 1305 2825 
Q 1016 2553 972 2059 
L 3022 2063 
z
" transform="scale(0.015625)"/>
      </defs>
      <use xlink:href="#DejaVuSans-54"/>
      <use xlink:href="#DejaVuSans-69" transform="translate(57.958984 0)"/>
      <use xlink:href="#DejaVuSans-6d" transform="translate(85.742188 0)"/>
      <use xlink:href="#DejaVuSans-65" transform="translate(183.154297 0)"/>
     </g>
    </g>
   </g>
   <g id="matplotlib.axis_2">
    <g id="ytick_1">
     <g id="line2d_11">
      <path d="M 43.78125 273.943369 
L 368.869368 273.943369 
" clip-path="url(#pef0235a46b)" style="fill: none; stroke: #b0b0b0; stroke-opacity: 0.3; stroke-width: 0.8; stroke-linecap: square"/>
     </g>
     <g id="line2d_12">
      <defs>
       <path id="meeecb2d126" d="M 0 0 
L -3.5 0 
" style="stroke: #000000; stroke-width: 0.8"/>
      </defs>
      <g>
       <use xlink:href="#meeecb2d126" x="43.78125" y="273.943369" style="stroke: #000000; stroke-width: 0.8"/>
      </g>
     </g>
     <g id="text_7">
      <!-- 0.0 -->
      <g transform="translate(20.878125 277.742588) scale(0.1 -0.1)">
       <defs>
        <path id="DejaVuSans-2e" d="M 684 794 
L 1344 794 
L 1344 0 
L 684 0 
L 684 794 
z
" transform="scale(0.015625)"/>
       </defs>
       <use xlink:href="#DejaVuSans-30"/>
       <use xlink:href="#DejaVuSans-2e" transform="translate(63.623047 0)"/>
       <use xlink:href="#DejaVuSans-30" transform="translate(95.410156 0)"/>
      </g>
     </g>
    </g>
    <g id="ytick_2">
     <g id="line2d_13">
      <path d="M 43.78125 244.571583 
L 368.869368 244.571583 
" clip-path="url(#pef0235a46b)" style="fill: none; stroke: #b0b0b0; stroke-opacity: 0.3; stroke-width: 0.8; stroke-linecap: square"/>
     </g>
     <g id="line2d_14">
      <g>
       <use xlink:href="#meeecb2d126" x="43.78125" y="244.571583" style="stroke: #000000; stroke-width: 0.8"/>
      </g>
     </g>
     <g id="text_8">
      <!-- 0.2 -->
      <g transform="translate(20.878125 248.370802) scale(0.1 -0.1)">
       <use xlink:href="#DejaVuSans-30"/>
       <use xlink:href="#DejaVuSans-2e" transform="translate(63.623047 0)"/>
       <use xlink:href="#DejaVuSans-32" transform="translate(95.410156 0)"/>
      </g>
     </g>
    </g>
    <g id="ytick_3">
     <g id="line2d_15">
      <path d="M 43.78125 215.199797 
L 368.869368 215.199797 
" clip-path="url(#pef0235a46b)" style="fill: none; stroke: #b0b0b0; stroke-opacity: 0.3; stroke-width: 0.8; stroke-linecap: square"/>
     </g>
     <g id="line2d_16">
      <g>
       <use xlink:href="#meeecb2d126" x="43.78125" y="215.199797" style="stroke: #000000; stroke-width: 0.8"/>
      </g>
     </g>
     <g id="text_9">
      <!-- 0.4 -->
      <g transform="translate(20.878125 218.999015) scale(0.1 -0.1)">
       <use xlink:href="#DejaVuSans-30"/>
       <use xlink:href="#DejaVuSans-2e" transform="translate(63.623047 0)"/>
       <use xlink:href="#DejaVuSans-34" transform="translate(95.410156 0)"/>
      </g>
     </g>
    </g>
    <g id="ytick_4">
     <g id="line2d_17">
      <path d="M 43.78125 185.82801 
L 368.869368 185.82801 
" clip-path="url(#pef0235a46b)" style="fill: none; stroke: #b0b0b0; stroke-opacity: 0.3; stroke-width: 0.8; stroke-linecap: square"/>
     </g>
     <g id="line2d_18">
      <g>
       <use xlink:href="#meeecb2d126" x="43.78125" y="185.82801" style="stroke: #000000; stroke-width: 0.8"/>
      </g>
     </g>
     <g id="text_10">
      <!-- 0.6 -->
      <g transform="translate(20.878125 189.627229) scale(0.1 -0.1)">
       <use xlink:href="#DejaVuSans-30"/>
       <use xlink:href="#DejaVuSans-2e" transform="translate(63.623047 0)"/>
       <use xlink:href="#DejaVuSans-36" transform="translate(95.410156 0)"/>
      </g>
     </g>
    </g>
    <g id="ytick_5">
     <g id="line2d_19">
      <path d="M 43.78125 156.456224 
L 368.869368 156.456224 
" clip-path="url(#pef0235a46b)" style="fill: none; stroke: #b0b0b0; stroke-opacity: 0.3; stroke-width: 0.8; stroke-linecap: square"/>
     </g>
     <g id="line2d_20">
      <g>
       <use xlink:href="#meeecb2d126" x="43.78125" y="156.456224" style="stroke: #000000; stroke-width: 0.8"/>
      </g>
     </g>
     <g id="text_11">
      <!-- 0.8 -->
      <g transform="translate(20.878125 160.255443) scale(0.1 -0.1)">
       <use xlink:href="#DejaVuSans-30"/>
       <use xlink:href="#DejaVuSans-2e" transform="translate(63.623047 0)"/>
       <use xlink:href="#DejaVuSans-38" transform="translate(95.410156 0)"/>
      </g>
     </g>
    </g>
    <g id="ytick_6">
     <g id="line2d_21">
      <path d="M 43.78125 127.084438 
L 368.869368 127.084438 
" clip-path="url(#pef0235a46b)" style="fill: none; stroke: #b0b0b0; stroke-opacity: 0.3; stroke-width: 0.8; stroke-linecap: square"/>
     </g>
     <g id="line2d_22">
      <g>
       <use xlink:href="#meeecb2d126" x="43.78125" y="127.084438" style="stroke: #000000; stroke-width: 0.8"/>
      </g>
     </g>
     <g id="text_12">
      <!-- 1.0 -->
      <g transform="translate(20.878125 130.883656) scale(0.1 -0.1)">
       <use xlink:href="#DejaVuSans-31"/>
       <use xlink:href="#DejaVuSans-2e" transform="translate(63.623047 0)"/>
       <use xlink:href="#DejaVuSans-30" transform="translate(95.410156 0)"/>
      </g>
     </g>
    </g>
    <g id="ytick_7">
     <g id="line2d_23">
      <path d="M 43.78125 97.712651 
L 368.869368 97.712651 
" clip-path="url(#pef0235a46b)" style="fill: none; stroke: #b0b0b0; stroke-opacity: 0.3; stroke-width: 0.8; stroke-linecap: square"/>
     </g>
     <g id="line2d_24">
      <g>
       <use xlink:href="#meeecb2d126" x="43.78125" y="97.712651" style="stroke: #000000; stroke-width: 0.8"/>
      </g>
     </g>
     <g id="text_13">
      <!-- 1.2 -->
      <g transform="translate(20.878125 101.51187) scale(0.1 -0.1)">
       <use xlink:href="#DejaVuSans-31"/>
       <use xlink:href="#DejaVuSans-2e" transform="translate(63.623047 0)"/>
       <use xlink:href="#DejaVuSans-32" transform="translate(95.410156 0)"/>
      </g>
     </g>
    </g>
    <g id="ytick_8">
     <g id="line2d_25">
      <path d="M 43.78125 68.340865 
L 368.869368 68.340865 
" clip-path="url(#pef0235a46b)" style="fill: none; stroke: #b0b0b0; stroke-opacity: 0.3; stroke-width: 0.8; stroke-linecap: square"/>
     </g>
     <g id="line2d_26">
      <g>
       <use xlink:href="#meeecb2d126" x="43.78125" y="68.340865" style="stroke: #000000; stroke-width: 0.8"/>
      </g>
     </g>
     <g id="text_14">
      <!-- 1.4 -->
      <g transform="translate(20.878125 72.140084) scale(0.1 -0.1)">
       <use xlink:href="#DejaVuSans-31"/>
       <use xlink:href="#DejaVuSans-2e" transform="translate(63.623047 0)"/>
       <use xlink:href="#DejaVuSans-34" transform="translate(95.410156 0)"/>
      </g>
     </g>
    </g>
    <g id="ytick_9">
     <g id="line2d_27">
      <path d="M 43.78125 38.969079 
L 368.869368 38.969079 
" clip-path="url(#pef0235a46b)" style="fill: none; stroke: #b0b0b0; stroke-opacity: 0.3; stroke-width: 0.8; stroke-linecap: square"/>
     </g>
     <g id="line2d_28">
      <g>
       <use xlink:href="#meeecb2d126" x="43.78125" y="38.969079" style="stroke: #000000; stroke-width: 0.8"/>
      </g>
     </g>
     <g id="text_15">
      <!-- 1.6 -->
      <g transform="translate(20.878125 42.768298) scale(0.1 -0.1)">
       <use xlink:href="#DejaVuSans-31"/>
       <use xlink:href="#DejaVuSans-2e" transform="translate(63.623047 0)"/>
       <use xlink:href="#DejaVuSans-36" transform="translate(95.410156 0)"/>
      </g>
     </g>
    </g>
    <g id="text_16">
     <!-- Loss -->
     <g transform="translate(14.798438 163.184688) rotate(-90) scale(0.1 -0.1)">
      <defs>
       <path id="DejaVuSans-4c" d="M 628 4666 
L 1259 4666 
L 1259 531 
L 3531 531 
L 3531 0 
L 628 0 
L 628 4666 
z
" transform="scale(0.015625)"/>
       <path id="DejaVuSans-6f" d="M 1959 3097 
Q 1497 3097 1228 2736 
Q 959 2375 959 1747 
Q 959 1119 1226 758 
Q 1494 397 1959 397 
Q 2419 397 2687 759 
Q 2956 1122 2956 1747 
Q 2956 2369 2687 2733 
Q 2419 3097 1959 3097 
z
M 1959 3584 
Q 2709 3584 3137 3096 
Q 3566 2609 3566 1747 
Q 3566 888 3137 398 
Q 2709 -91 1959 -91 
Q 1206 -91 779 398 
Q 353 888 353 1747 
Q 353 2609 779 3096 
Q 1206 3584 1959 3584 
z
" transform="scale(0.015625)"/>
       <path id="DejaVuSans-73" d="M 2834 3397 
L 2834 2853 
Q 2591 2978 2328 3040 
Q 2066 3103 1784 3103 
Q 1356 3103 1142 2972 
Q 928 2841 928 2578 
Q 928 2378 1081 2264 
Q 1234 2150 1697 2047 
L 1894 2003 
Q 2506 1872 2764 1633 
Q 3022 1394 3022 966 
Q 3022 478 2636 193 
Q 2250 -91 1575 -91 
Q 1294 -91 989 -36 
Q 684 19 347 128 
L 347 722 
Q 666 556 975 473 
Q 1284 391 1588 391 
Q 1994 391 2212 530 
Q 2431 669 2431 922 
Q 2431 1156 2273 1281 
Q 2116 1406 1581 1522 
L 1381 1569 
Q 847 1681 609 1914 
Q 372 2147 372 2553 
Q 372 3047 722 3315 
Q 1072 3584 1716 3584 
Q 2034 3584 2315 3537 
Q 2597 3491 2834 3397 
z
" transform="scale(0.015625)"/>
      </defs>
      <use xlink:href="#DejaVuSans-4c"/>
      <use xlink:href="#DejaVuSans-6f" transform="translate(53.962891 0)"/>
      <use xlink:href="#DejaVuSans-73" transform="translate(115.144531 0)"/>
      <use xlink:href="#DejaVuSans-73" transform="translate(167.244141 0)"/>
     </g>
    </g>
   </g>
   <g id="line2d_29">
    <path d="M 58.965323 45.171009 
L 71.339221 243.845812 
L 83.325254 258.830733 
L 95.350117 260.918274 
L 107.697374 262.349103 
L 119.677439 263.823045 
L 132.005842 263.82438 
L 144.379412 264.236152 
L 156.369174 265.079811 
L 168.340111 265.367373 
L 180.346127 265.383149 
L 192.691041 266.212843 
L 205.051569 266.086798 
L 217.415837 266.251366 
L 229.742599 266.641648 
L 242.458746 266.787481 
L 254.850408 266.036507 
L 267.185757 266.945093 
L 279.202955 266.570182 
L 291.210989 266.684161 
L 303.555137 266.825759 
L 315.571684 266.664353 
L 327.936782 266.731546 
L 341.007473 266.424473 
L 353.350421 266.407753 
" clip-path="url(#pef0235a46b)" style="fill: none; stroke: #1f77b4; stroke-opacity: 0.9; stroke-width: 1.5; stroke-linecap: square"/>
   </g>
   <g id="line2d_30">
    <path d="M 58.931309 45.171005 
L 71.296114 246.837778 
L 83.26378 259.031827 
L 95.215978 260.64232 
L 107.571736 262.440934 
L 119.55367 263.434203 
L 131.884256 264.019469 
L 144.280926 264.843957 
L 156.682733 264.706454 
L 169.075991 265.193236 
L 181.457981 265.501351 
L 193.8695 265.93988 
L 206.219426 265.881257 
L 218.187985 266.130906 
L 230.154037 266.451108 
L 242.153113 266.65884 
L 254.520003 266.410038 
L 266.872388 265.809292 
L 279.586504 266.270604 
L 291.964013 267.363188 
L 304.350084 267.052988 
L 316.671871 267.001592 
L 328.68453 267.009223 
L 341.761141 267.236477 
L 354.092635 266.968666 
" clip-path="url(#pef0235a46b)" style="fill: none; stroke: #ff7f0e; stroke-opacity: 0.9; stroke-width: 1.5; stroke-linecap: square"/>
   </g>
   <g id="line2d_31">
    <path d="M 59.017492 45.171005 
L 71.360315 246.080455 
L 83.327291 257.988249 
L 95.296129 261.066359 
L 107.29266 262.372922 
L 119.659323 263.222191 
L 131.990342 264.013852 
L 144.314154 263.89408 
L 156.276842 264.965406 
L 168.636247 265.821214 
L 180.971431 265.939296 
L 193.300168 266.010845 
L 205.636354 266.227329 
L 218.010216 266.541691 
L 230.343273 266.661789 
L 242.309783 266.738589 
L 254.264424 267.222977 
L 266.596846 266.716579 
L 278.957114 266.840445 
L 290.930225 266.74124 
L 302.896402 266.525625 
L 315.220512 266.422483 
L 327.555966 266.596076 
L 340.63202 266.750687 
L 352.989341 267.475473 
" clip-path="url(#pef0235a46b)" style="fill: none; stroke: #2ca02c; stroke-opacity: 0.9; stroke-width: 1.5; stroke-linecap: square"/>
   </g>
   <g id="line2d_32">
    <path d="M 58.557983 45.17101 
L 70.923708 245.317184 
L 83.252733 258.817997 
L 95.573996 261.122939 
L 108.003951 262.349489 
L 120.377299 263.48346 
L 132.357134 264.956989 
L 144.322232 264.793915 
L 156.289614 265.412204 
L 168.628599 265.972036 
L 180.979173 266.09477 
L 193.33536 266.490237 
L 205.720158 266.433434 
L 217.701289 266.595661 
L 230.031743 266.462819 
L 242.377973 267.078883 
L 254.709483 266.576793 
L 267.053836 266.372595 
L 279.400646 267.016183 
L 291.382688 267.033676 
L 303.353344 266.357921 
L 315.332424 267.141916 
L 327.664975 267.018539 
L 340.738866 267.135079 
L 353.113402 266.670551 
" clip-path="url(#pef0235a46b)" style="fill: none; stroke: #d62728; stroke-opacity: 0.9; stroke-width: 1.5; stroke-linecap: square"/>
   </g>
   <g id="line2d_33">
    <path d="M 58.954716 45.171004 
L 71.318165 246.33792 
L 83.289347 258.833658 
L 95.282054 260.56296 
L 107.605652 262.421191 
L 119.946399 263.274564 
L 132.325801 264.217611 
L 144.735272 264.36843 
L 156.716651 264.895053 
L 168.682713 265.249337 
L 181.049543 265.201064 
L 193.087337 266.145916 
L 205.457733 266.244636 
L 217.826849 266.368932 
L 230.155407 266.091233 
L 242.508904 266.493016 
L 254.907261 266.736026 
L 267.265368 266.893876 
L 279.244399 266.798682 
L 291.216017 267.013844 
L 303.226925 266.984754 
L 315.545108 266.745101 
L 327.874349 266.91901 
L 340.924497 266.697345 
L 353.248993 267.032957 
" clip-path="url(#pef0235a46b)" style="fill: none; stroke: #9467bd; stroke-opacity: 0.9; stroke-width: 1.5; stroke-linecap: square"/>
   </g>
   <g id="patch_3">
    <path d="M 43.78125 279.0775 
L 43.78125 25.3575 
" style="fill: none; stroke: #000000; stroke-width: 0.8; stroke-linejoin: miter; stroke-linecap: square"/>
   </g>
   <g id="patch_4">
    <path d="M 368.869368 279.0775 
L 368.869368 25.3575 
" style="fill: none; stroke: #000000; stroke-width: 0.8; stroke-linejoin: miter; stroke-linecap: square"/>
   </g>
   <g id="patch_5">
    <path d="M 43.78125 279.0775 
L 368.869368 279.0775 
" style="fill: none; stroke: #000000; stroke-width: 0.8; stroke-linejoin: miter; stroke-linecap: square"/>
   </g>
   <g id="patch_6">
    <path d="M 43.78125 25.3575 
L 368.869368 25.3575 
" style="fill: none; stroke: #000000; stroke-width: 0.8; stroke-linejoin: miter; stroke-linecap: square"/>
   </g>
   <g id="text_17">
    <!-- Slow clients = 0 -->
    <g transform="translate(142.025309 19.3575) scale(0.16 -0.16)">
     <defs>
      <path id="DejaVuSans-53" d="M 3425 4513 
L 3425 3897 
Q 3066 4069 2747 4153 
Q 2428 4238 2131 4238 
Q 1616 4238 1336 4038 
Q 1056 3838 1056 3469 
Q 1056 3159 1242 3001 
Q 1428 2844 1947 2747 
L 2328 2669 
Q 3034 2534 3370 2195 
Q 3706 1856 3706 1288 
Q 3706 609 3251 259 
Q 2797 -91 1919 -91 
Q 1588 -91 1214 -16 
Q 841 59 441 206 
L 441 856 
Q 825 641 1194 531 
Q 1563 422 1919 422 
Q 2459 422 2753 634 
Q 3047 847 3047 1241 
Q 3047 1584 2836 1778 
Q 2625 1972 2144 2069 
L 1759 2144 
Q 1053 2284 737 2584 
Q 422 2884 422 3419 
Q 422 4038 858 4394 
Q 1294 4750 2059 4750 
Q 2388 4750 2728 4690 
Q 3069 4631 3425 4513 
z
" transform="scale(0.015625)"/>
      <path id="DejaVuSans-6c" d="M 603 4863 
L 1178 4863 
L 1178 0 
L 603 0 
L 603 4863 
z
" transform="scale(0.015625)"/>
      <path id="DejaVuSans-77" d="M 269 3500 
L 844 3500 
L 1563 769 
L 2278 3500 
L 2956 3500 
L 3675 769 
L 4391 3500 
L 4966 3500 
L 4050 0 
L 3372 0 
L 2619 2869 
L 1863 0 
L 1184 0 
L 269 3500 
z
" transform="scale(0.015625)"/>
      <path id="DejaVuSans-20" transform="scale(0.015625)"/>
      <path id="DejaVuSans-63" d="M 3122 3366 
L 3122 2828 
Q 2878 2963 2633 3030 
Q 2388 3097 2138 3097 
Q 1578 3097 1268 2742 
Q 959 2388 959 1747 
Q 959 1106 1268 751 
Q 1578 397 2138 397 
Q 2388 397 2633 464 
Q 2878 531 3122 666 
L 3122 134 
Q 2881 22 2623 -34 
Q 2366 -91 2075 -91 
Q 1284 -91 818 406 
Q 353 903 353 1747 
Q 353 2603 823 3093 
Q 1294 3584 2113 3584 
Q 2378 3584 2631 3529 
Q 2884 3475 3122 3366 
z
" transform="scale(0.015625)"/>
      <path id="DejaVuSans-6e" d="M 3513 2113 
L 3513 0 
L 2938 0 
L 2938 2094 
Q 2938 2591 2744 2837 
Q 2550 3084 2163 3084 
Q 1697 3084 1428 2787 
Q 1159 2491 1159 1978 
L 1159 0 
L 581 0 
L 581 3500 
L 1159 3500 
L 1159 2956 
Q 1366 3272 1645 3428 
Q 1925 3584 2291 3584 
Q 2894 3584 3203 3211 
Q 3513 2838 3513 2113 
z
" transform="scale(0.015625)"/>
      <path id="DejaVuSans-74" d="M 1172 4494 
L 1172 3500 
L 2356 3500 
L 2356 3053 
L 1172 3053 
L 1172 1153 
Q 1172 725 1289 603 
Q 1406 481 1766 481 
L 2356 481 
L 2356 0 
L 1766 0 
Q 1100 0 847 248 
Q 594 497 594 1153 
L 594 3053 
L 172 3053 
L 172 3500 
L 594 3500 
L 594 4494 
L 1172 4494 
z
" transform="scale(0.015625)"/>
      <path id="DejaVuSans-3d" d="M 678 2906 
L 4684 2906 
L 4684 2381 
L 678 2381 
L 678 2906 
z
M 678 1631 
L 4684 1631 
L 4684 1100 
L 678 1100 
L 678 1631 
z
" transform="scale(0.015625)"/>
     </defs>
     <use xlink:href="#DejaVuSans-53"/>
     <use xlink:href="#DejaVuSans-6c" transform="translate(63.476562 0)"/>
     <use xlink:href="#DejaVuSans-6f" transform="translate(91.259766 0)"/>
     <use xlink:href="#DejaVuSans-77" transform="translate(152.441406 0)"/>
     <use xlink:href="#DejaVuSans-20" transform="translate(234.228516 0)"/>
     <use xlink:href="#DejaVuSans-63" transform="translate(266.015625 0)"/>
     <use xlink:href="#DejaVuSans-6c" transform="translate(320.996094 0)"/>
     <use xlink:href="#DejaVuSans-69" transform="translate(348.779297 0)"/>
     <use xlink:href="#DejaVuSans-65" transform="translate(376.5625 0)"/>
     <use xlink:href="#DejaVuSans-6e" transform="translate(438.085938 0)"/>
     <use xlink:href="#DejaVuSans-74" transform="translate(501.464844 0)"/>
     <use xlink:href="#DejaVuSans-73" transform="translate(540.673828 0)"/>
     <use xlink:href="#DejaVuSans-20" transform="translate(592.773438 0)"/>
     <use xlink:href="#DejaVuSans-3d" transform="translate(624.560547 0)"/>
     <use xlink:href="#DejaVuSans-20" transform="translate(708.349609 0)"/>
     <use xlink:href="#DejaVuSans-30" transform="translate(740.136719 0)"/>
    </g>
   </g>
  </g>
  <g id="axes_2">
   <g id="patch_7">
    <path d="M 390.17808 279.0775 
L 715.266198 279.0775 
L 715.266198 25.3575 
L 390.17808 25.3575 
z
" style="fill: #ffffff"/>
   </g>
   <g id="matplotlib.axis_3">
    <g id="xtick_6">
     <g id="line2d_34">
      <path d="M 418.867234 279.0775 
L 418.867234 25.3575 
" clip-path="url(#pccff878a82)" style="fill: none; stroke: #b0b0b0; stroke-opacity: 0.3; stroke-width: 0.8; stroke-linecap: square"/>
     </g>
     <g id="line2d_35">
      <g>
       <use xlink:href="#made37570ab" x="418.867234" y="279.0775" style="stroke: #000000; stroke-width: 0.8"/>
      </g>
     </g>
     <g id="text_18">
      <!-- 20 -->
      <g transform="translate(412.504734 293.675938) scale(0.1 -0.1)">
       <use xlink:href="#DejaVuSans-32"/>
       <use xlink:href="#DejaVuSans-30" transform="translate(63.623047 0)"/>
      </g>
     </g>
    </g>
    <g id="xtick_7">
     <g id="line2d_36">
      <path d="M 456.085105 279.0775 
L 456.085105 25.3575 
" clip-path="url(#pccff878a82)" style="fill: none; stroke: #b0b0b0; stroke-opacity: 0.3; stroke-width: 0.8; stroke-linecap: square"/>
     </g>
     <g id="line2d_37">
      <g>
       <use xlink:href="#made37570ab" x="456.085105" y="279.0775" style="stroke: #000000; stroke-width: 0.8"/>
      </g>
     </g>
     <g id="text_19">
      <!-- 40 -->
      <g transform="translate(449.722605 293.675938) scale(0.1 -0.1)">
       <use xlink:href="#DejaVuSans-34"/>
       <use xlink:href="#DejaVuSans-30" transform="translate(63.623047 0)"/>
      </g>
     </g>
    </g>
    <g id="xtick_8">
     <g id="line2d_38">
      <path d="M 493.302975 279.0775 
L 493.302975 25.3575 
" clip-path="url(#pccff878a82)" style="fill: none; stroke: #b0b0b0; stroke-opacity: 0.3; stroke-width: 0.8; stroke-linecap: square"/>
     </g>
     <g id="line2d_39">
      <g>
       <use xlink:href="#made37570ab" x="493.302975" y="279.0775" style="stroke: #000000; stroke-width: 0.8"/>
      </g>
     </g>
     <g id="text_20">
      <!-- 60 -->
      <g transform="translate(486.940475 293.675938) scale(0.1 -0.1)">
       <use xlink:href="#DejaVuSans-36"/>
       <use xlink:href="#DejaVuSans-30" transform="translate(63.623047 0)"/>
      </g>
     </g>
    </g>
    <g id="xtick_9">
     <g id="line2d_40">
      <path d="M 530.520846 279.0775 
L 530.520846 25.3575 
" clip-path="url(#pccff878a82)" style="fill: none; stroke: #b0b0b0; stroke-opacity: 0.3; stroke-width: 0.8; stroke-linecap: square"/>
     </g>
     <g id="line2d_41">
      <g>
       <use xlink:href="#made37570ab" x="530.520846" y="279.0775" style="stroke: #000000; stroke-width: 0.8"/>
      </g>
     </g>
     <g id="text_21">
      <!-- 80 -->
      <g transform="translate(524.158346 293.675938) scale(0.1 -0.1)">
       <use xlink:href="#DejaVuSans-38"/>
       <use xlink:href="#DejaVuSans-30" transform="translate(63.623047 0)"/>
      </g>
     </g>
    </g>
    <g id="xtick_10">
     <g id="line2d_42">
      <path d="M 567.738717 279.0775 
L 567.738717 25.3575 
" clip-path="url(#pccff878a82)" style="fill: none; stroke: #b0b0b0; stroke-opacity: 0.3; stroke-width: 0.8; stroke-linecap: square"/>
     </g>
     <g id="line2d_43">
      <g>
       <use xlink:href="#made37570ab" x="567.738717" y="279.0775" style="stroke: #000000; stroke-width: 0.8"/>
      </g>
     </g>
     <g id="text_22">
      <!-- 100 -->
      <g transform="translate(558.194967 293.675938) scale(0.1 -0.1)">
       <use xlink:href="#DejaVuSans-31"/>
       <use xlink:href="#DejaVuSans-30" transform="translate(63.623047 0)"/>
       <use xlink:href="#DejaVuSans-30" transform="translate(127.246094 0)"/>
      </g>
     </g>
    </g>
    <g id="xtick_11">
     <g id="line2d_44">
      <path d="M 604.956588 279.0775 
L 604.956588 25.3575 
" clip-path="url(#pccff878a82)" style="fill: none; stroke: #b0b0b0; stroke-opacity: 0.3; stroke-width: 0.8; stroke-linecap: square"/>
     </g>
     <g id="line2d_45">
      <g>
       <use xlink:href="#made37570ab" x="604.956588" y="279.0775" style="stroke: #000000; stroke-width: 0.8"/>
      </g>
     </g>
     <g id="text_23">
      <!-- 120 -->
      <g transform="translate(595.412838 293.675938) scale(0.1 -0.1)">
       <use xlink:href="#DejaVuSans-31"/>
       <use xlink:href="#DejaVuSans-32" transform="translate(63.623047 0)"/>
       <use xlink:href="#DejaVuSans-30" transform="translate(127.246094 0)"/>
      </g>
     </g>
    </g>
    <g id="xtick_12">
     <g id="line2d_46">
      <path d="M 642.174458 279.0775 
L 642.174458 25.3575 
" clip-path="url(#pccff878a82)" style="fill: none; stroke: #b0b0b0; stroke-opacity: 0.3; stroke-width: 0.8; stroke-linecap: square"/>
     </g>
     <g id="line2d_47">
      <g>
       <use xlink:href="#made37570ab" x="642.174458" y="279.0775" style="stroke: #000000; stroke-width: 0.8"/>
      </g>
     </g>
     <g id="text_24">
      <!-- 140 -->
      <g transform="translate(632.630708 293.675938) scale(0.1 -0.1)">
       <use xlink:href="#DejaVuSans-31"/>
       <use xlink:href="#DejaVuSans-34" transform="translate(63.623047 0)"/>
       <use xlink:href="#DejaVuSans-30" transform="translate(127.246094 0)"/>
      </g>
     </g>
    </g>
    <g id="xtick_13">
     <g id="line2d_48">
      <path d="M 679.392329 279.0775 
L 679.392329 25.3575 
" clip-path="url(#pccff878a82)" style="fill: none; stroke: #b0b0b0; stroke-opacity: 0.3; stroke-width: 0.8; stroke-linecap: square"/>
     </g>
     <g id="line2d_49">
      <g>
       <use xlink:href="#made37570ab" x="679.392329" y="279.0775" style="stroke: #000000; stroke-width: 0.8"/>
      </g>
     </g>
     <g id="text_25">
      <!-- 160 -->
      <g transform="translate(669.848579 293.675938) scale(0.1 -0.1)">
       <use xlink:href="#DejaVuSans-31"/>
       <use xlink:href="#DejaVuSans-36" transform="translate(63.623047 0)"/>
       <use xlink:href="#DejaVuSans-30" transform="translate(127.246094 0)"/>
      </g>
     </g>
    </g>
    <g id="text_26">
     <!-- Time -->
     <g transform="translate(540.488545 307.354063) scale(0.1 -0.1)">
      <use xlink:href="#DejaVuSans-54"/>
      <use xlink:href="#DejaVuSans-69" transform="translate(57.958984 0)"/>
      <use xlink:href="#DejaVuSans-6d" transform="translate(85.742188 0)"/>
      <use xlink:href="#DejaVuSans-65" transform="translate(183.154297 0)"/>
     </g>
    </g>
   </g>
   <g id="matplotlib.axis_4">
    <g id="ytick_10">
     <g id="line2d_50">
      <path d="M 390.17808 273.943369 
L 715.266198 273.943369 
" clip-path="url(#pccff878a82)" style="fill: none; stroke: #b0b0b0; stroke-opacity: 0.3; stroke-width: 0.8; stroke-linecap: square"/>
     </g>
     <g id="line2d_51">
      <g>
       <use xlink:href="#meeecb2d126" x="390.17808" y="273.943369" style="stroke: #000000; stroke-width: 0.8"/>
      </g>
     </g>
    </g>
    <g id="ytick_11">
     <g id="line2d_52">
      <path d="M 390.17808 244.571583 
L 715.266198 244.571583 
" clip-path="url(#pccff878a82)" style="fill: none; stroke: #b0b0b0; stroke-opacity: 0.3; stroke-width: 0.8; stroke-linecap: square"/>
     </g>
     <g id="line2d_53">
      <g>
       <use xlink:href="#meeecb2d126" x="390.17808" y="244.571583" style="stroke: #000000; stroke-width: 0.8"/>
      </g>
     </g>
    </g>
    <g id="ytick_12">
     <g id="line2d_54">
      <path d="M 390.17808 215.199797 
L 715.266198 215.199797 
" clip-path="url(#pccff878a82)" style="fill: none; stroke: #b0b0b0; stroke-opacity: 0.3; stroke-width: 0.8; stroke-linecap: square"/>
     </g>
     <g id="line2d_55">
      <g>
       <use xlink:href="#meeecb2d126" x="390.17808" y="215.199797" style="stroke: #000000; stroke-width: 0.8"/>
      </g>
     </g>
    </g>
    <g id="ytick_13">
     <g id="line2d_56">
      <path d="M 390.17808 185.82801 
L 715.266198 185.82801 
" clip-path="url(#pccff878a82)" style="fill: none; stroke: #b0b0b0; stroke-opacity: 0.3; stroke-width: 0.8; stroke-linecap: square"/>
     </g>
     <g id="line2d_57">
      <g>
       <use xlink:href="#meeecb2d126" x="390.17808" y="185.82801" style="stroke: #000000; stroke-width: 0.8"/>
      </g>
     </g>
    </g>
    <g id="ytick_14">
     <g id="line2d_58">
      <path d="M 390.17808 156.456224 
L 715.266198 156.456224 
" clip-path="url(#pccff878a82)" style="fill: none; stroke: #b0b0b0; stroke-opacity: 0.3; stroke-width: 0.8; stroke-linecap: square"/>
     </g>
     <g id="line2d_59">
      <g>
       <use xlink:href="#meeecb2d126" x="390.17808" y="156.456224" style="stroke: #000000; stroke-width: 0.8"/>
      </g>
     </g>
    </g>
    <g id="ytick_15">
     <g id="line2d_60">
      <path d="M 390.17808 127.084438 
L 715.266198 127.084438 
" clip-path="url(#pccff878a82)" style="fill: none; stroke: #b0b0b0; stroke-opacity: 0.3; stroke-width: 0.8; stroke-linecap: square"/>
     </g>
     <g id="line2d_61">
      <g>
       <use xlink:href="#meeecb2d126" x="390.17808" y="127.084438" style="stroke: #000000; stroke-width: 0.8"/>
      </g>
     </g>
    </g>
    <g id="ytick_16">
     <g id="line2d_62">
      <path d="M 390.17808 97.712651 
L 715.266198 97.712651 
" clip-path="url(#pccff878a82)" style="fill: none; stroke: #b0b0b0; stroke-opacity: 0.3; stroke-width: 0.8; stroke-linecap: square"/>
     </g>
     <g id="line2d_63">
      <g>
       <use xlink:href="#meeecb2d126" x="390.17808" y="97.712651" style="stroke: #000000; stroke-width: 0.8"/>
      </g>
     </g>
    </g>
    <g id="ytick_17">
     <g id="line2d_64">
      <path d="M 390.17808 68.340865 
L 715.266198 68.340865 
" clip-path="url(#pccff878a82)" style="fill: none; stroke: #b0b0b0; stroke-opacity: 0.3; stroke-width: 0.8; stroke-linecap: square"/>
     </g>
     <g id="line2d_65">
      <g>
       <use xlink:href="#meeecb2d126" x="390.17808" y="68.340865" style="stroke: #000000; stroke-width: 0.8"/>
      </g>
     </g>
    </g>
    <g id="ytick_18">
     <g id="line2d_66">
      <path d="M 390.17808 38.969079 
L 715.266198 38.969079 
" clip-path="url(#pccff878a82)" style="fill: none; stroke: #b0b0b0; stroke-opacity: 0.3; stroke-width: 0.8; stroke-linecap: square"/>
     </g>
     <g id="line2d_67">
      <g>
       <use xlink:href="#meeecb2d126" x="390.17808" y="38.969079" style="stroke: #000000; stroke-width: 0.8"/>
      </g>
     </g>
    </g>
   </g>
   <g id="line2d_68">
    <path d="M 410.550428 45.171009 
L 422.687513 244.910015 
L 434.635068 258.620354 
L 446.593298 260.897257 
L 458.554121 262.082815 
L 470.684391 263.158755 
L 482.840114 263.985533 
L 494.782267 264.736763 
L 506.912703 264.952887 
L 519.042129 265.312151 
L 530.985299 265.627271 
L 542.926337 265.990814 
L 555.051317 266.261271 
L 567.200743 266.245325 
L 579.141314 265.950882 
L 591.269287 266.833143 
L 603.420368 267.099918 
L 615.551731 266.326072 
L 627.496543 266.711318 
L 639.652229 267.078541 
L 651.598715 266.648138 
L 663.752792 266.769358 
L 675.900811 266.982639 
L 688.232069 266.765325 
L 700.184505 267.324781 
" clip-path="url(#pccff878a82)" style="fill: none; stroke: #1f77b4; stroke-opacity: 0.9; stroke-width: 1.5; stroke-linecap: square"/>
   </g>
   <g id="line2d_69">
    <path d="M 404.954813 46.344891 
L 411.332545 235.599488 
L 417.697197 258.679747 
L 424.239021 259.877906 
L 430.779974 261.557628 
L 437.131386 263.367728 
L 443.480313 262.946547 
L 449.825588 263.810644 
L 456.365238 264.179614 
L 462.908105 264.961981 
L 469.451324 265.563309 
L 476.013024 265.723576 
L 482.367014 265.502572 
L 488.722209 266.151779 
L 495.285448 265.905163 
L 501.834175 265.912683 
L 508.391569 266.68488 
L 514.935453 265.926532 
L 521.479154 266.35579 
L 527.831377 266.273956 
L 534.37514 266.078713 
L 540.732057 265.679571 
L 547.276633 266.080398 
L 553.843245 266.729 
L 565.970506 266.741886 
" clip-path="url(#pccff878a82)" style="fill: none; stroke: #ff7f0e; stroke-opacity: 0.9; stroke-width: 1.5; stroke-linecap: square"/>
   </g>
   <g id="line2d_70">
    <path d="M 404.974932 46.344892 
L 411.54969 235.553823 
L 417.901851 257.744017 
L 424.261256 259.444454 
L 430.804369 261.648264 
L 437.182786 262.862347 
L 443.723366 263.500935 
L 450.271449 263.608911 
L 456.819216 264.341563 
L 463.57058 264.27923 
L 469.919361 264.994631 
L 476.269928 265.706622 
L 482.809263 265.894249 
L 489.353463 265.772279 
L 495.894218 265.617598 
L 502.467029 266.184173 
L 509.019223 265.58947 
L 515.586732 265.831956 
L 522.138021 266.359738 
L 528.492353 266.120755 
L 534.851491 266.198375 
L 541.223455 266.373961 
L 547.948007 266.250654 
L 554.301874 266.396397 
L 572.009365 266.829394 
" clip-path="url(#pccff878a82)" style="fill: none; stroke: #2ca02c; stroke-opacity: 0.9; stroke-width: 1.5; stroke-linecap: square"/>
   </g>
   <g id="line2d_71">
    <path d="M 404.958967 46.344895 
L 411.519127 233.732922 
L 418.080131 257.697447 
L 424.654923 260.22241 
L 431.220176 262.116126 
L 437.766552 263.176524 
L 444.117512 263.082775 
L 450.660465 263.86876 
L 457.207901 264.496149 
L 463.756323 264.094575 
L 470.305663 264.978185 
L 476.874345 266.002428 
L 483.437264 265.44975 
L 490.002418 266.141184 
L 496.551249 266.05249 
L 503.119669 266.464312 
L 509.476111 265.625377 
L 515.828062 266.069366 
L 522.368927 266.576222 
L 528.915894 266.652642 
L 535.457617 266.290632 
L 542.017673 266.800602 
L 548.777446 265.80923 
L 555.142732 266.275053 
L 572.866107 266.161908 
" clip-path="url(#pccff878a82)" style="fill: none; stroke: #d62728; stroke-opacity: 0.9; stroke-width: 1.5; stroke-linecap: square"/>
   </g>
   <g id="line2d_72">
    <path d="M 410.552134 45.171011 
L 422.679202 246.085222 
L 434.634603 258.662482 
L 446.767431 260.677238 
L 458.89928 262.65174 
L 470.832712 263.523051 
L 482.958562 264.524281 
L 495.108078 264.632394 
L 507.248535 265.124044 
L 519.184709 265.836332 
L 531.334768 265.82027 
L 543.465255 266.162028 
L 555.608866 265.991423 
L 567.54185 266.256781 
L 579.668559 266.454897 
L 591.643351 266.501707 
L 603.785605 266.508624 
L 615.743877 266.755255 
L 627.872163 266.21384 
L 640.003426 266.746036 
L 651.955481 267.03953 
L 663.894428 267.111152 
L 676.04574 266.951759 
L 688.547809 267.459585 
L 700.489465 266.988467 
" clip-path="url(#pccff878a82)" style="fill: none; stroke: #9467bd; stroke-opacity: 0.9; stroke-width: 1.5; stroke-linecap: square"/>
   </g>
   <g id="patch_8">
    <path d="M 390.17808 279.0775 
L 390.17808 25.3575 
" style="fill: none; stroke: #000000; stroke-width: 0.8; stroke-linejoin: miter; stroke-linecap: square"/>
   </g>
   <g id="patch_9">
    <path d="M 715.266198 279.0775 
L 715.266198 25.3575 
" style="fill: none; stroke: #000000; stroke-width: 0.8; stroke-linejoin: miter; stroke-linecap: square"/>
   </g>
   <g id="patch_10">
    <path d="M 390.17808 279.0775 
L 715.266198 279.0775 
" style="fill: none; stroke: #000000; stroke-width: 0.8; stroke-linejoin: miter; stroke-linecap: square"/>
   </g>
   <g id="patch_11">
    <path d="M 390.17808 25.3575 
L 715.266198 25.3575 
" style="fill: none; stroke: #000000; stroke-width: 0.8; stroke-linejoin: miter; stroke-linecap: square"/>
   </g>
   <g id="text_27">
    <!-- Slow clients = 1 -->
    <g transform="translate(488.422139 19.3575) scale(0.16 -0.16)">
     <use xlink:href="#DejaVuSans-53"/>
     <use xlink:href="#DejaVuSans-6c" transform="translate(63.476562 0)"/>
     <use xlink:href="#DejaVuSans-6f" transform="translate(91.259766 0)"/>
     <use xlink:href="#DejaVuSans-77" transform="translate(152.441406 0)"/>
     <use xlink:href="#DejaVuSans-20" transform="translate(234.228516 0)"/>
     <use xlink:href="#DejaVuSans-63" transform="translate(266.015625 0)"/>
     <use xlink:href="#DejaVuSans-6c" transform="translate(320.996094 0)"/>
     <use xlink:href="#DejaVuSans-69" transform="translate(348.779297 0)"/>
     <use xlink:href="#DejaVuSans-65" transform="translate(376.5625 0)"/>
     <use xlink:href="#DejaVuSans-6e" transform="translate(438.085938 0)"/>
     <use xlink:href="#DejaVuSans-74" transform="translate(501.464844 0)"/>
     <use xlink:href="#DejaVuSans-73" transform="translate(540.673828 0)"/>
     <use xlink:href="#DejaVuSans-20" transform="translate(592.773438 0)"/>
     <use xlink:href="#DejaVuSans-3d" transform="translate(624.560547 0)"/>
     <use xlink:href="#DejaVuSans-20" transform="translate(708.349609 0)"/>
     <use xlink:href="#DejaVuSans-31" transform="translate(740.136719 0)"/>
    </g>
   </g>
  </g>
  <g id="axes_3">
   <g id="patch_12">
    <path d="M 736.57491 279.0775 
L 1061.663028 279.0775 
L 1061.663028 25.3575 
L 736.57491 25.3575 
z
" style="fill: #ffffff"/>
   </g>
   <g id="matplotlib.axis_5">
    <g id="xtick_14">
     <g id="line2d_73">
      <path d="M 765.281051 279.0775 
L 765.281051 25.3575 
" clip-path="url(#p9f729d508a)" style="fill: none; stroke: #b0b0b0; stroke-opacity: 0.3; stroke-width: 0.8; stroke-linecap: square"/>
     </g>
     <g id="line2d_74">
      <g>
       <use xlink:href="#made37570ab" x="765.281051" y="279.0775" style="stroke: #000000; stroke-width: 0.8"/>
      </g>
     </g>
     <g id="text_28">
      <!-- 20 -->
      <g transform="translate(758.918551 293.675938) scale(0.1 -0.1)">
       <use xlink:href="#DejaVuSans-32"/>
       <use xlink:href="#DejaVuSans-30" transform="translate(63.623047 0)"/>
      </g>
     </g>
    </g>
    <g id="xtick_15">
     <g id="line2d_75">
      <path d="M 802.503779 279.0775 
L 802.503779 25.3575 
" clip-path="url(#p9f729d508a)" style="fill: none; stroke: #b0b0b0; stroke-opacity: 0.3; stroke-width: 0.8; stroke-linecap: square"/>
     </g>
     <g id="line2d_76">
      <g>
       <use xlink:href="#made37570ab" x="802.503779" y="279.0775" style="stroke: #000000; stroke-width: 0.8"/>
      </g>
     </g>
     <g id="text_29">
      <!-- 40 -->
      <g transform="translate(796.141279 293.675938) scale(0.1 -0.1)">
       <use xlink:href="#DejaVuSans-34"/>
       <use xlink:href="#DejaVuSans-30" transform="translate(63.623047 0)"/>
      </g>
     </g>
    </g>
    <g id="xtick_16">
     <g id="line2d_77">
      <path d="M 839.726507 279.0775 
L 839.726507 25.3575 
" clip-path="url(#p9f729d508a)" style="fill: none; stroke: #b0b0b0; stroke-opacity: 0.3; stroke-width: 0.8; stroke-linecap: square"/>
     </g>
     <g id="line2d_78">
      <g>
       <use xlink:href="#made37570ab" x="839.726507" y="279.0775" style="stroke: #000000; stroke-width: 0.8"/>
      </g>
     </g>
     <g id="text_30">
      <!-- 60 -->
      <g transform="translate(833.364007 293.675938) scale(0.1 -0.1)">
       <use xlink:href="#DejaVuSans-36"/>
       <use xlink:href="#DejaVuSans-30" transform="translate(63.623047 0)"/>
      </g>
     </g>
    </g>
    <g id="xtick_17">
     <g id="line2d_79">
      <path d="M 876.949235 279.0775 
L 876.949235 25.3575 
" clip-path="url(#p9f729d508a)" style="fill: none; stroke: #b0b0b0; stroke-opacity: 0.3; stroke-width: 0.8; stroke-linecap: square"/>
     </g>
     <g id="line2d_80">
      <g>
       <use xlink:href="#made37570ab" x="876.949235" y="279.0775" style="stroke: #000000; stroke-width: 0.8"/>
      </g>
     </g>
     <g id="text_31">
      <!-- 80 -->
      <g transform="translate(870.586735 293.675938) scale(0.1 -0.1)">
       <use xlink:href="#DejaVuSans-38"/>
       <use xlink:href="#DejaVuSans-30" transform="translate(63.623047 0)"/>
      </g>
     </g>
    </g>
    <g id="xtick_18">
     <g id="line2d_81">
      <path d="M 914.171963 279.0775 
L 914.171963 25.3575 
" clip-path="url(#p9f729d508a)" style="fill: none; stroke: #b0b0b0; stroke-opacity: 0.3; stroke-width: 0.8; stroke-linecap: square"/>
     </g>
     <g id="line2d_82">
      <g>
       <use xlink:href="#made37570ab" x="914.171963" y="279.0775" style="stroke: #000000; stroke-width: 0.8"/>
      </g>
     </g>
     <g id="text_32">
      <!-- 100 -->
      <g transform="translate(904.628213 293.675938) scale(0.1 -0.1)">
       <use xlink:href="#DejaVuSans-31"/>
       <use xlink:href="#DejaVuSans-30" transform="translate(63.623047 0)"/>
       <use xlink:href="#DejaVuSans-30" transform="translate(127.246094 0)"/>
      </g>
     </g>
    </g>
    <g id="xtick_19">
     <g id="line2d_83">
      <path d="M 951.394691 279.0775 
L 951.394691 25.3575 
" clip-path="url(#p9f729d508a)" style="fill: none; stroke: #b0b0b0; stroke-opacity: 0.3; stroke-width: 0.8; stroke-linecap: square"/>
     </g>
     <g id="line2d_84">
      <g>
       <use xlink:href="#made37570ab" x="951.394691" y="279.0775" style="stroke: #000000; stroke-width: 0.8"/>
      </g>
     </g>
     <g id="text_33">
      <!-- 120 -->
      <g transform="translate(941.850941 293.675938) scale(0.1 -0.1)">
       <use xlink:href="#DejaVuSans-31"/>
       <use xlink:href="#DejaVuSans-32" transform="translate(63.623047 0)"/>
       <use xlink:href="#DejaVuSans-30" transform="translate(127.246094 0)"/>
      </g>
     </g>
    </g>
    <g id="xtick_20">
     <g id="line2d_85">
      <path d="M 988.617419 279.0775 
L 988.617419 25.3575 
" clip-path="url(#p9f729d508a)" style="fill: none; stroke: #b0b0b0; stroke-opacity: 0.3; stroke-width: 0.8; stroke-linecap: square"/>
     </g>
     <g id="line2d_86">
      <g>
       <use xlink:href="#made37570ab" x="988.617419" y="279.0775" style="stroke: #000000; stroke-width: 0.8"/>
      </g>
     </g>
     <g id="text_34">
      <!-- 140 -->
      <g transform="translate(979.073669 293.675938) scale(0.1 -0.1)">
       <use xlink:href="#DejaVuSans-31"/>
       <use xlink:href="#DejaVuSans-34" transform="translate(63.623047 0)"/>
       <use xlink:href="#DejaVuSans-30" transform="translate(127.246094 0)"/>
      </g>
     </g>
    </g>
    <g id="xtick_21">
     <g id="line2d_87">
      <path d="M 1025.840147 279.0775 
L 1025.840147 25.3575 
" clip-path="url(#p9f729d508a)" style="fill: none; stroke: #b0b0b0; stroke-opacity: 0.3; stroke-width: 0.8; stroke-linecap: square"/>
     </g>
     <g id="line2d_88">
      <g>
       <use xlink:href="#made37570ab" x="1025.840147" y="279.0775" style="stroke: #000000; stroke-width: 0.8"/>
      </g>
     </g>
     <g id="text_35">
      <!-- 160 -->
      <g transform="translate(1016.296397 293.675938) scale(0.1 -0.1)">
       <use xlink:href="#DejaVuSans-31"/>
       <use xlink:href="#DejaVuSans-36" transform="translate(63.623047 0)"/>
       <use xlink:href="#DejaVuSans-30" transform="translate(127.246094 0)"/>
      </g>
     </g>
    </g>
    <g id="text_36">
     <!-- Time -->
     <g transform="translate(886.885376 307.354063) scale(0.1 -0.1)">
      <use xlink:href="#DejaVuSans-54"/>
      <use xlink:href="#DejaVuSans-69" transform="translate(57.958984 0)"/>
      <use xlink:href="#DejaVuSans-6d" transform="translate(85.742188 0)"/>
      <use xlink:href="#DejaVuSans-65" transform="translate(183.154297 0)"/>
     </g>
    </g>
   </g>
   <g id="matplotlib.axis_6">
    <g id="ytick_19">
     <g id="line2d_89">
      <path d="M 736.57491 273.943369 
L 1061.663028 273.943369 
" clip-path="url(#p9f729d508a)" style="fill: none; stroke: #b0b0b0; stroke-opacity: 0.3; stroke-width: 0.8; stroke-linecap: square"/>
     </g>
     <g id="line2d_90">
      <g>
       <use xlink:href="#meeecb2d126" x="736.57491" y="273.943369" style="stroke: #000000; stroke-width: 0.8"/>
      </g>
     </g>
    </g>
    <g id="ytick_20">
     <g id="line2d_91">
      <path d="M 736.57491 244.571583 
L 1061.663028 244.571583 
" clip-path="url(#p9f729d508a)" style="fill: none; stroke: #b0b0b0; stroke-opacity: 0.3; stroke-width: 0.8; stroke-linecap: square"/>
     </g>
     <g id="line2d_92">
      <g>
       <use xlink:href="#meeecb2d126" x="736.57491" y="244.571583" style="stroke: #000000; stroke-width: 0.8"/>
      </g>
     </g>
    </g>
    <g id="ytick_21">
     <g id="line2d_93">
      <path d="M 736.57491 215.199797 
L 1061.663028 215.199797 
" clip-path="url(#p9f729d508a)" style="fill: none; stroke: #b0b0b0; stroke-opacity: 0.3; stroke-width: 0.8; stroke-linecap: square"/>
     </g>
     <g id="line2d_94">
      <g>
       <use xlink:href="#meeecb2d126" x="736.57491" y="215.199797" style="stroke: #000000; stroke-width: 0.8"/>
      </g>
     </g>
    </g>
    <g id="ytick_22">
     <g id="line2d_95">
      <path d="M 736.57491 185.82801 
L 1061.663028 185.82801 
" clip-path="url(#p9f729d508a)" style="fill: none; stroke: #b0b0b0; stroke-opacity: 0.3; stroke-width: 0.8; stroke-linecap: square"/>
     </g>
     <g id="line2d_96">
      <g>
       <use xlink:href="#meeecb2d126" x="736.57491" y="185.82801" style="stroke: #000000; stroke-width: 0.8"/>
      </g>
     </g>
    </g>
    <g id="ytick_23">
     <g id="line2d_97">
      <path d="M 736.57491 156.456224 
L 1061.663028 156.456224 
" clip-path="url(#p9f729d508a)" style="fill: none; stroke: #b0b0b0; stroke-opacity: 0.3; stroke-width: 0.8; stroke-linecap: square"/>
     </g>
     <g id="line2d_98">
      <g>
       <use xlink:href="#meeecb2d126" x="736.57491" y="156.456224" style="stroke: #000000; stroke-width: 0.8"/>
      </g>
     </g>
    </g>
    <g id="ytick_24">
     <g id="line2d_99">
      <path d="M 736.57491 127.084438 
L 1061.663028 127.084438 
" clip-path="url(#p9f729d508a)" style="fill: none; stroke: #b0b0b0; stroke-opacity: 0.3; stroke-width: 0.8; stroke-linecap: square"/>
     </g>
     <g id="line2d_100">
      <g>
       <use xlink:href="#meeecb2d126" x="736.57491" y="127.084438" style="stroke: #000000; stroke-width: 0.8"/>
      </g>
     </g>
    </g>
    <g id="ytick_25">
     <g id="line2d_101">
      <path d="M 736.57491 97.712651 
L 1061.663028 97.712651 
" clip-path="url(#p9f729d508a)" style="fill: none; stroke: #b0b0b0; stroke-opacity: 0.3; stroke-width: 0.8; stroke-linecap: square"/>
     </g>
     <g id="line2d_102">
      <g>
       <use xlink:href="#meeecb2d126" x="736.57491" y="97.712651" style="stroke: #000000; stroke-width: 0.8"/>
      </g>
     </g>
    </g>
    <g id="ytick_26">
     <g id="line2d_103">
      <path d="M 736.57491 68.340865 
L 1061.663028 68.340865 
" clip-path="url(#p9f729d508a)" style="fill: none; stroke: #b0b0b0; stroke-opacity: 0.3; stroke-width: 0.8; stroke-linecap: square"/>
     </g>
     <g id="line2d_104">
      <g>
       <use xlink:href="#meeecb2d126" x="736.57491" y="68.340865" style="stroke: #000000; stroke-width: 0.8"/>
      </g>
     </g>
    </g>
    <g id="ytick_27">
     <g id="line2d_105">
      <path d="M 736.57491 38.969079 
L 1061.663028 38.969079 
" clip-path="url(#p9f729d508a)" style="fill: none; stroke: #b0b0b0; stroke-opacity: 0.3; stroke-width: 0.8; stroke-linecap: square"/>
     </g>
     <g id="line2d_106">
      <g>
       <use xlink:href="#meeecb2d126" x="736.57491" y="38.969079" style="stroke: #000000; stroke-width: 0.8"/>
      </g>
     </g>
    </g>
   </g>
   <g id="line2d_107">
    <path d="M 756.769691 45.17101 
L 768.929957 246.601484 
L 781.061317 258.291866 
L 793.00408 261.030164 
L 805.135976 262.523821 
L 817.28967 262.976788 
L 829.444861 263.45288 
L 841.383931 264.751958 
L 853.511237 264.515918 
L 865.451067 265.825151 
L 877.390727 265.974989 
L 889.523741 265.913203 
L 901.655164 266.196906 
L 913.593344 266.31844 
L 925.719777 266.612092 
L 937.859118 266.127333 
L 949.796374 266.785167 
L 961.926475 267.181311 
L 974.062734 267.544773 
L 986.005288 266.939258 
L 997.944106 267.218859 
L 1010.089426 266.871192 
L 1022.221142 266.646853 
L 1034.723195 266.71763 
L 1046.886296 267.01805 
" clip-path="url(#p9f729d508a)" style="fill: none; stroke: #1f77b4; stroke-opacity: 0.9; stroke-width: 1.5; stroke-linecap: square"/>
   </g>
   <g id="line2d_108">
    <path d="M 751.369317 36.890229 
L 757.755072 233.287842 
L 764.103125 256.653524 
L 770.452791 260.353754 
L 776.991227 259.631203 
L 783.536223 261.424715 
L 790.0792 262.467021 
L 796.62586 263.625436 
L 803.168501 263.635458 
L 809.731004 263.05852 
L 816.289146 264.571684 
L 822.645732 265.528356 
L 829.205293 265.316481 
L 835.774598 265.692728 
L 842.313982 264.869345 
L 848.855907 266.363306 
L 855.396207 265.098471 
L 861.770167 265.29831 
L 868.334724 265.432101 
L 874.69126 265.582165 
L 881.235719 266.341923 
L 887.779006 265.927088 
L 894.32499 265.419122 
L 900.888578 266.09914 
L 912.823635 266.655271 
" clip-path="url(#p9f729d508a)" style="fill: none; stroke: #ff7f0e; stroke-opacity: 0.9; stroke-width: 1.5; stroke-linecap: square"/>
   </g>
   <g id="line2d_109">
    <path d="M 751.351643 36.890227 
L 757.908261 239.143253 
L 764.263906 256.815249 
L 770.61895 259.733294 
L 777.179514 260.923355 
L 783.725562 261.566702 
L 790.292888 263.307637 
L 796.849898 264.111036 
L 803.3926 264.525316 
L 809.962363 263.775096 
L 816.516057 265.466698 
L 823.29074 264.281396 
L 829.854843 265.305645 
L 836.424039 265.599739 
L 843.002929 266.056837 
L 849.577219 265.232776 
L 856.131336 265.820761 
L 862.723428 265.37292 
L 869.26908 265.669854 
L 875.847062 266.074278 
L 882.196019 266.017698 
L 888.737094 266.744522 
L 895.279368 266.37213 
L 901.65972 266.730985 
L 913.793658 266.318151 
" clip-path="url(#p9f729d508a)" style="fill: none; stroke: #2ca02c; stroke-opacity: 0.9; stroke-width: 1.5; stroke-linecap: square"/>
   </g>
   <g id="line2d_110">
    <path d="M 756.938339 45.171009 
L 769.075626 246.627587 
L 781.015867 257.518509 
L 793.144814 260.885569 
L 805.278544 262.3824 
L 817.222238 262.979079 
L 829.355625 263.806473 
L 841.503483 264.467209 
L 853.44536 264.857743 
L 865.408206 265.205049 
L 877.562305 266.255865 
L 889.708711 266.408578 
L 901.64671 266.117495 
L 913.590468 266.517069 
L 925.72998 266.786557 
L 937.674636 266.889293 
L 949.806676 267.303147 
L 961.746608 267.116345 
L 973.899615 266.720744 
L 985.843174 266.772753 
L 997.974605 266.871687 
L 1010.133768 267.128783 
L 1022.274874 267.186757 
L 1034.591279 266.565398 
L 1046.740912 266.644843 
" clip-path="url(#p9f729d508a)" style="fill: none; stroke: #d62728; stroke-opacity: 0.9; stroke-width: 1.5; stroke-linecap: square"/>
   </g>
   <g id="line2d_111">
    <path d="M 756.956603 45.171011 
L 769.127126 243.668357 
L 781.065929 258.880135 
L 793.198713 260.902619 
L 805.338092 261.967158 
L 817.289788 263.056929 
L 829.420423 264.119746 
L 841.360203 264.303679 
L 853.300842 265.069137 
L 865.427931 265.233896 
L 877.561199 264.890741 
L 889.521562 264.94179 
L 901.477065 265.557002 
L 913.605049 266.245883 
L 925.760188 265.942789 
L 937.697016 265.150569 
L 949.838722 265.966724 
L 961.800356 265.956475 
L 973.936932 266.141665 
L 985.872857 266.591274 
L 998.001449 266.531707 
L 1009.970599 266.577435 
L 1021.933371 266.604436 
L 1034.435229 267.018966 
L 1046.588976 266.953186 
" clip-path="url(#p9f729d508a)" style="fill: none; stroke: #9467bd; stroke-opacity: 0.9; stroke-width: 1.5; stroke-linecap: square"/>
   </g>
   <g id="patch_13">
    <path d="M 736.57491 279.0775 
L 736.57491 25.3575 
" style="fill: none; stroke: #000000; stroke-width: 0.8; stroke-linejoin: miter; stroke-linecap: square"/>
   </g>
   <g id="patch_14">
    <path d="M 1061.663028 279.0775 
L 1061.663028 25.3575 
" style="fill: none; stroke: #000000; stroke-width: 0.8; stroke-linejoin: miter; stroke-linecap: square"/>
   </g>
   <g id="patch_15">
    <path d="M 736.57491 279.0775 
L 1061.663028 279.0775 
" style="fill: none; stroke: #000000; stroke-width: 0.8; stroke-linejoin: miter; stroke-linecap: square"/>
   </g>
   <g id="patch_16">
    <path d="M 736.57491 25.3575 
L 1061.663028 25.3575 
" style="fill: none; stroke: #000000; stroke-width: 0.8; stroke-linejoin: miter; stroke-linecap: square"/>
   </g>
   <g id="text_37">
    <!-- Slow clients = 2 -->
    <g transform="translate(834.818969 19.3575) scale(0.16 -0.16)">
     <use xlink:href="#DejaVuSans-53"/>
     <use xlink:href="#DejaVuSans-6c" transform="translate(63.476562 0)"/>
     <use xlink:href="#DejaVuSans-6f" transform="translate(91.259766 0)"/>
     <use xlink:href="#DejaVuSans-77" transform="translate(152.441406 0)"/>
     <use xlink:href="#DejaVuSans-20" transform="translate(234.228516 0)"/>
     <use xlink:href="#DejaVuSans-63" transform="translate(266.015625 0)"/>
     <use xlink:href="#DejaVuSans-6c" transform="translate(320.996094 0)"/>
     <use xlink:href="#DejaVuSans-69" transform="translate(348.779297 0)"/>
     <use xlink:href="#DejaVuSans-65" transform="translate(376.5625 0)"/>
     <use xlink:href="#DejaVuSans-6e" transform="translate(438.085938 0)"/>
     <use xlink:href="#DejaVuSans-74" transform="translate(501.464844 0)"/>
     <use xlink:href="#DejaVuSans-73" transform="translate(540.673828 0)"/>
     <use xlink:href="#DejaVuSans-20" transform="translate(592.773438 0)"/>
     <use xlink:href="#DejaVuSans-3d" transform="translate(624.560547 0)"/>
     <use xlink:href="#DejaVuSans-20" transform="translate(708.349609 0)"/>
     <use xlink:href="#DejaVuSans-32" transform="translate(740.136719 0)"/>
    </g>
   </g>
  </g>
  <g id="legend_1">
   <g id="line2d_112">
    <path d="M 27.9525 323.5975 
L 43.9525 323.5975 
L 59.9525 323.5975 
" style="fill: none; stroke: #ff7f0e; stroke-opacity: 0.9; stroke-width: 1.5; stroke-linecap: square"/>
   </g>
   <g id="text_38">
    <!-- FedSaSync ($M = 7$) -->
    <g transform="translate(72.7525 329.1975) scale(0.16 -0.16)">
     <defs>
      <path id="DejaVuSans-46" d="M 628 4666 
L 3309 4666 
L 3309 4134 
L 1259 4134 
L 1259 2759 
L 3109 2759 
L 3109 2228 
L 1259 2228 
L 1259 0 
L 628 0 
L 628 4666 
z
" transform="scale(0.015625)"/>
      <path id="DejaVuSans-64" d="M 2906 2969 
L 2906 4863 
L 3481 4863 
L 3481 0 
L 2906 0 
L 2906 525 
Q 2725 213 2448 61 
Q 2172 -91 1784 -91 
Q 1150 -91 751 415 
Q 353 922 353 1747 
Q 353 2572 751 3078 
Q 1150 3584 1784 3584 
Q 2172 3584 2448 3432 
Q 2725 3281 2906 2969 
z
M 947 1747 
Q 947 1113 1208 752 
Q 1469 391 1925 391 
Q 2381 391 2643 752 
Q 2906 1113 2906 1747 
Q 2906 2381 2643 2742 
Q 2381 3103 1925 3103 
Q 1469 3103 1208 2742 
Q 947 2381 947 1747 
z
" transform="scale(0.015625)"/>
      <path id="DejaVuSans-61" d="M 2194 1759 
Q 1497 1759 1228 1600 
Q 959 1441 959 1056 
Q 959 750 1161 570 
Q 1363 391 1709 391 
Q 2188 391 2477 730 
Q 2766 1069 2766 1631 
L 2766 1759 
L 2194 1759 
z
M 3341 1997 
L 3341 0 
L 2766 0 
L 2766 531 
Q 2569 213 2275 61 
Q 1981 -91 1556 -91 
Q 1019 -91 701 211 
Q 384 513 384 1019 
Q 384 1609 779 1909 
Q 1175 2209 1959 2209 
L 2766 2209 
L 2766 2266 
Q 2766 2663 2505 2880 
Q 2244 3097 1772 3097 
Q 1472 3097 1187 3025 
Q 903 2953 641 2809 
L 641 3341 
Q 956 3463 1253 3523 
Q 1550 3584 1831 3584 
Q 2591 3584 2966 3190 
Q 3341 2797 3341 1997 
z
" transform="scale(0.015625)"/>
      <path id="DejaVuSans-79" d="M 2059 -325 
Q 1816 -950 1584 -1140 
Q 1353 -1331 966 -1331 
L 506 -1331 
L 506 -850 
L 844 -850 
Q 1081 -850 1212 -737 
Q 1344 -625 1503 -206 
L 1606 56 
L 191 3500 
L 800 3500 
L 1894 763 
L 2988 3500 
L 3597 3500 
L 2059 -325 
z
" transform="scale(0.015625)"/>
      <path id="DejaVuSans-28" d="M 1984 4856 
Q 1566 4138 1362 3434 
Q 1159 2731 1159 2009 
Q 1159 1288 1364 580 
Q 1569 -128 1984 -844 
L 1484 -844 
Q 1016 -109 783 600 
Q 550 1309 550 2009 
Q 550 2706 781 3412 
Q 1013 4119 1484 4856 
L 1984 4856 
z
" transform="scale(0.015625)"/>
      <path id="DejaVuSans-Oblique-4d" d="M 1081 4666 
L 2028 4666 
L 2572 1522 
L 4378 4666 
L 5350 4666 
L 4441 0 
L 3828 0 
L 4622 4091 
L 2791 897 
L 2175 897 
L 1581 4103 
L 788 0 
L 172 0 
L 1081 4666 
z
" transform="scale(0.015625)"/>
      <path id="DejaVuSans-37" d="M 525 4666 
L 3525 4666 
L 3525 4397 
L 1831 0 
L 1172 0 
L 2766 4134 
L 525 4134 
L 525 4666 
z
" transform="scale(0.015625)"/>
      <path id="DejaVuSans-29" d="M 513 4856 
L 1013 4856 
Q 1481 4119 1714 3412 
Q 1947 2706 1947 2009 
Q 1947 1309 1714 600 
Q 1481 -109 1013 -844 
L 513 -844 
Q 928 -128 1133 580 
Q 1338 1288 1338 2009 
Q 1338 2731 1133 3434 
Q 928 4138 513 4856 
z
" transform="scale(0.015625)"/>
     </defs>
     <use xlink:href="#DejaVuSans-46" transform="translate(0 0.015625)"/>
     <use xlink:href="#DejaVuSans-65" transform="translate(57.519531 0.015625)"/>
     <use xlink:href="#DejaVuSans-64" transform="translate(119.042969 0.015625)"/>
     <use xlink:href="#DejaVuSans-53" transform="translate(182.519531 0.015625)"/>
     <use xlink:href="#DejaVuSans-61" transform="translate(245.996094 0.015625)"/>
     <use xlink:href="#DejaVuSans-53" transform="translate(307.275391 0.015625)"/>
     <use xlink:href="#DejaVuSans-79" transform="translate(370.751953 0.015625)"/>
     <use xlink:href="#DejaVuSans-6e" transform="translate(429.931641 0.015625)"/>
     <use xlink:href="#DejaVuSans-63" transform="translate(493.310547 0.015625)"/>
     <use xlink:href="#DejaVuSans-20" transform="translate(548.291016 0.015625)"/>
     <use xlink:href="#DejaVuSans-28" transform="translate(580.078125 0.015625)"/>
     <use xlink:href="#DejaVuSans-Oblique-4d" transform="translate(619.091797 0.015625)"/>
     <use xlink:href="#DejaVuSans-3d" transform="translate(724.853516 0.015625)"/>
     <use xlink:href="#DejaVuSans-37" transform="translate(828.125 0.015625)"/>
     <use xlink:href="#DejaVuSans-29" transform="translate(891.748047 0.015625)"/>
    </g>
   </g>
   <g id="line2d_113">
    <path d="M 253.7125 323.5975 
L 269.7125 323.5975 
L 285.7125 323.5975 
" style="fill: none; stroke: #2ca02c; stroke-opacity: 0.9; stroke-width: 1.5; stroke-linecap: square"/>
   </g>
   <g id="text_39">
    <!-- FedSaSync ($M = 8$) -->
    <g transform="translate(298.5125 329.1975) scale(0.16 -0.16)">
     <use xlink:href="#DejaVuSans-46" transform="translate(0 0.015625)"/>
     <use xlink:href="#DejaVuSans-65" transform="translate(57.519531 0.015625)"/>
     <use xlink:href="#DejaVuSans-64" transform="translate(119.042969 0.015625)"/>
     <use xlink:href="#DejaVuSans-53" transform="translate(182.519531 0.015625)"/>
     <use xlink:href="#DejaVuSans-61" transform="translate(245.996094 0.015625)"/>
     <use xlink:href="#DejaVuSans-53" transform="translate(307.275391 0.015625)"/>
     <use xlink:href="#DejaVuSans-79" transform="translate(370.751953 0.015625)"/>
     <use xlink:href="#DejaVuSans-6e" transform="translate(429.931641 0.015625)"/>
     <use xlink:href="#DejaVuSans-63" transform="translate(493.310547 0.015625)"/>
     <use xlink:href="#DejaVuSans-20" transform="translate(548.291016 0.015625)"/>
     <use xlink:href="#DejaVuSans-28" transform="translate(580.078125 0.015625)"/>
     <use xlink:href="#DejaVuSans-Oblique-4d" transform="translate(619.091797 0.015625)"/>
     <use xlink:href="#DejaVuSans-3d" transform="translate(724.853516 0.015625)"/>
     <use xlink:href="#DejaVuSans-38" transform="translate(828.125 0.015625)"/>
     <use xlink:href="#DejaVuSans-29" transform="translate(891.748047 0.015625)"/>
    </g>
   </g>
   <g id="line2d_114">
    <path d="M 479.4725 323.5975 
L 495.4725 323.5975 
L 511.4725 323.5975 
" style="fill: none; stroke: #d62728; stroke-opacity: 0.9; stroke-width: 1.5; stroke-linecap: square"/>
   </g>
   <g id="text_40">
    <!-- FedSaSync ($M = 9$) -->
    <g transform="translate(524.2725 329.1975) scale(0.16 -0.16)">
     <defs>
      <path id="DejaVuSans-39" d="M 703 97 
L 703 672 
Q 941 559 1184 500 
Q 1428 441 1663 441 
Q 2288 441 2617 861 
Q 2947 1281 2994 2138 
Q 2813 1869 2534 1725 
Q 2256 1581 1919 1581 
Q 1219 1581 811 2004 
Q 403 2428 403 3163 
Q 403 3881 828 4315 
Q 1253 4750 1959 4750 
Q 2769 4750 3195 4129 
Q 3622 3509 3622 2328 
Q 3622 1225 3098 567 
Q 2575 -91 1691 -91 
Q 1453 -91 1209 -44 
Q 966 3 703 97 
z
M 1959 2075 
Q 2384 2075 2632 2365 
Q 2881 2656 2881 3163 
Q 2881 3666 2632 3958 
Q 2384 4250 1959 4250 
Q 1534 4250 1286 3958 
Q 1038 3666 1038 3163 
Q 1038 2656 1286 2365 
Q 1534 2075 1959 2075 
z
" transform="scale(0.015625)"/>
     </defs>
     <use xlink:href="#DejaVuSans-46" transform="translate(0 0.015625)"/>
     <use xlink:href="#DejaVuSans-65" transform="translate(57.519531 0.015625)"/>
     <use xlink:href="#DejaVuSans-64" transform="translate(119.042969 0.015625)"/>
     <use xlink:href="#DejaVuSans-53" transform="translate(182.519531 0.015625)"/>
     <use xlink:href="#DejaVuSans-61" transform="translate(245.996094 0.015625)"/>
     <use xlink:href="#DejaVuSans-53" transform="translate(307.275391 0.015625)"/>
     <use xlink:href="#DejaVuSans-79" transform="translate(370.751953 0.015625)"/>
     <use xlink:href="#DejaVuSans-6e" transform="translate(429.931641 0.015625)"/>
     <use xlink:href="#DejaVuSans-63" transform="translate(493.310547 0.015625)"/>
     <use xlink:href="#DejaVuSans-20" transform="translate(548.291016 0.015625)"/>
     <use xlink:href="#DejaVuSans-28" transform="translate(580.078125 0.015625)"/>
     <use xlink:href="#DejaVuSans-Oblique-4d" transform="translate(619.091797 0.015625)"/>
     <use xlink:href="#DejaVuSans-3d" transform="translate(724.853516 0.015625)"/>
     <use xlink:href="#DejaVuSans-39" transform="translate(828.125 0.015625)"/>
     <use xlink:href="#DejaVuSans-29" transform="translate(891.748047 0.015625)"/>
    </g>
   </g>
   <g id="line2d_115">
    <path d="M 705.2325 323.5975 
L 721.2325 323.5975 
L 737.2325 323.5975 
" style="fill: none; stroke: #9467bd; stroke-opacity: 0.9; stroke-width: 1.5; stroke-linecap: square"/>
   </g>
   <g id="text_41">
    <!-- FedSaSync ($M = 10$) -->
    <g transform="translate(750.0325 329.1975) scale(0.16 -0.16)">
     <use xlink:href="#DejaVuSans-46" transform="translate(0 0.015625)"/>
     <use xlink:href="#DejaVuSans-65" transform="translate(57.519531 0.015625)"/>
     <use xlink:href="#DejaVuSans-64" transform="translate(119.042969 0.015625)"/>
     <use xlink:href="#DejaVuSans-53" transform="translate(182.519531 0.015625)"/>
     <use xlink:href="#DejaVuSans-61" transform="translate(245.996094 0.015625)"/>
     <use xlink:href="#DejaVuSans-53" transform="translate(307.275391 0.015625)"/>
     <use xlink:href="#DejaVuSans-79" transform="translate(370.751953 0.015625)"/>
     <use xlink:href="#DejaVuSans-6e" transform="translate(429.931641 0.015625)"/>
     <use xlink:href="#DejaVuSans-63" transform="translate(493.310547 0.015625)"/>
     <use xlink:href="#DejaVuSans-20" transform="translate(548.291016 0.015625)"/>
     <use xlink:href="#DejaVuSans-28" transform="translate(580.078125 0.015625)"/>
     <use xlink:href="#DejaVuSans-Oblique-4d" transform="translate(619.091797 0.015625)"/>
     <use xlink:href="#DejaVuSans-3d" transform="translate(724.853516 0.015625)"/>
     <use xlink:href="#DejaVuSans-31" transform="translate(828.125 0.015625)"/>
     <use xlink:href="#DejaVuSans-30" transform="translate(891.748047 0.015625)"/>
     <use xlink:href="#DejaVuSans-29" transform="translate(955.371094 0.015625)"/>
    </g>
   </g>
   <g id="line2d_116">
    <path d="M 941.2325 323.5975 
L 957.2325 323.5975 
L 973.2325 323.5975 
" style="fill: none; stroke: #1f77b4; stroke-opacity: 0.9; stroke-width: 1.5; stroke-linecap: square"/>
   </g>
   <g id="text_42">
    <!-- FedAvg -->
    <g transform="translate(986.0325 329.1975) scale(0.16 -0.16)">
     <defs>
      <path id="DejaVuSans-41" d="M 2188 4044 
L 1331 1722 
L 3047 1722 
L 2188 4044 
z
M 1831 4666 
L 2547 4666 
L 4325 0 
L 3669 0 
L 3244 1197 
L 1141 1197 
L 716 0 
L 50 0 
L 1831 4666 
z
" transform="scale(0.015625)"/>
      <path id="DejaVuSans-76" d="M 191 3500 
L 800 3500 
L 1894 563 
L 2988 3500 
L 3597 3500 
L 2284 0 
L 1503 0 
L 191 3500 
z
" transform="scale(0.015625)"/>
      <path id="DejaVuSans-67" d="M 2906 1791 
Q 2906 2416 2648 2759 
Q 2391 3103 1925 3103 
Q 1463 3103 1205 2759 
Q 947 2416 947 1791 
Q 947 1169 1205 825 
Q 1463 481 1925 481 
Q 2391 481 2648 825 
Q 2906 1169 2906 1791 
z
M 3481 434 
Q 3481 -459 3084 -895 
Q 2688 -1331 1869 -1331 
Q 1566 -1331 1297 -1286 
Q 1028 -1241 775 -1147 
L 775 -588 
Q 1028 -725 1275 -790 
Q 1522 -856 1778 -856 
Q 2344 -856 2625 -561 
Q 2906 -266 2906 331 
L 2906 616 
Q 2728 306 2450 153 
Q 2172 0 1784 0 
Q 1141 0 747 490 
Q 353 981 353 1791 
Q 353 2603 747 3093 
Q 1141 3584 1784 3584 
Q 2172 3584 2450 3431 
Q 2728 3278 2906 2969 
L 2906 3500 
L 3481 3500 
L 3481 434 
z
" transform="scale(0.015625)"/>
     </defs>
     <use xlink:href="#DejaVuSans-46"/>
     <use xlink:href="#DejaVuSans-65" transform="translate(52.019531 0)"/>
     <use xlink:href="#DejaVuSans-64" transform="translate(113.542969 0)"/>
     <use xlink:href="#DejaVuSans-41" transform="translate(177.019531 0)"/>
     <use xlink:href="#DejaVuSans-76" transform="translate(239.552734 0)"/>
     <use xlink:href="#DejaVuSans-67" transform="translate(298.732422 0)"/>
    </g>
   </g>
  </g>
 </g>
 <defs>
  <clipPath id="pef0235a46b">
   <rect x="43.78125" y="25.3575" width="325.088118" height="253.72"/>
  </clipPath>
  <clipPath id="pccff878a82">
   <rect x="390.17808" y="25.3575" width="325.088118" height="253.72"/>
  </clipPath>
  <clipPath id="p9f729d508a">
   <rect x="736.57491" y="25.3575" width="325.088118" height="253.72"/>
  </clipPath>
 </defs>
</svg>
